<?xml version="1.0" standalone="no"?>
<!DOCTYPE svg PUBLIC "-//W3C//DTD SVG 20010904//EN"
 "http://www.w3.org/TR/2001/REC-SVG-20010904/DTD/svg10.dtd">
<svg version="1.0" xmlns="http://www.w3.org/2000/svg"
 width="676.000000pt" height="255.000000pt" viewBox="0 0 676.000000 255.000000"
 preserveAspectRatio="xMidYMid meet">
<metadata>
Created by potrace 1.16, written by Peter Selinger 2001-2019
</metadata>
<g transform="translate(0.000000,255.000000) scale(0.100000,-0.100000)"
fill="#000000" stroke="none">
<path d="M5492 2364 c-29 -20 -28 -38 14 -184 19 -68 33 -133 29 -144 -3 -12
-58 -66 -121 -121 -159 -139 -160 -139 -146 -170 l12 -25 209 0 c169 0 211 -3
220 -14 7 -8 30 -108 52 -221 21 -114 44 -215 49 -226 13 -22 62 -26 79 -5 6
7 38 91 71 186 33 95 63 176 66 181 3 5 66 9 140 9 139 0 174 8 174 38 0 9
-43 82 -95 161 -52 79 -95 154 -94 165 0 12 6 72 13 135 12 109 12 115 -6 133
-11 11 -25 17 -32 15 -6 -3 -73 -21 -147 -42 l-136 -36 -159 90 c-87 50 -161
91 -164 91 -3 0 -16 -7 -28 -16z"/>
<path d="M435 2221 c-61 -11 -112 -39 -151 -84 -30 -36 -64 -116 -64 -154 0
-10 63 -13 325 -13 l325 0 0 -838 c0 -938 -3 -891 72 -977 46 -52 97 -81 157
-91 l41 -7 2 954 3 954 230 5 c215 5 233 6 278 28 59 30 103 82 124 148 29 92
89 84 -649 83 -359 -1 -671 -5 -693 -8z"/>
<path d="M2696 1973 c-3 -3 -6 -311 -6 -683 0 -774 -2 -749 79 -830 46 -46
117 -80 168 -80 l24 0 -3 703 c-3 698 -3 702 -25 742 -28 53 -100 120 -144
133 -57 17 -86 22 -93 15z"/>
<path d="M4999 1542 c-70 -23 -135 -68 -188 -128 -35 -40 -42 -44 -47 -28 -18
58 -30 77 -60 104 -39 34 -89 50 -156 50 l-48 0 0 -580 0 -581 133 3 132 3 5
375 5 375 30 54 c35 63 76 97 141 117 102 31 201 8 261 -60 62 -70 65 -90 72
-401 6 -262 7 -283 28 -320 42 -79 122 -135 196 -138 l42 -2 3 360 c2 213 -2
395 -8 445 -20 164 -110 292 -238 341 -81 31 -227 36 -303 11z"/>
<path d="M1705 1536 c-27 -7 -60 -18 -72 -24 -38 -21 -91 -92 -103 -139 -11
-46 -5 -123 9 -123 4 0 40 11 80 25 93 31 220 49 296 40 148 -16 228 -90 237
-220 3 -46 9 -45 -102 -19 -102 23 -303 23 -387 1 -187 -49 -287 -160 -300
-331 -18 -230 149 -387 412 -388 140 -1 244 36 336 119 35 31 39 33 44 17 26
-85 63 -108 176 -112 l89 -4 0 379 c0 289 -4 394 -15 446 -37 175 -145 287
-320 332 -72 18 -306 19 -380 1z m309 -636 c32 -5 78 -17 102 -26 l44 -17 0
-51 c0 -144 -124 -247 -299 -248 -106 -1 -185 33 -216 92 -19 37 -19 113 0
150 19 36 87 84 140 98 52 13 155 14 229 2z"/>
<path d="M3523 1540 c-112 -24 -193 -117 -193 -222 0 -70 6 -72 91 -44 110 37
244 52 329 37 94 -17 150 -54 184 -122 32 -64 37 -144 9 -135 -131 40 -355 53
-463 27 -202 -49 -310 -177 -310 -368 0 -142 64 -244 193 -308 174 -85 411
-56 552 68 l40 35 20 -41 c11 -23 36 -52 55 -65 30 -20 44 -22 115 -20 l80 3
3 340 c3 361 -5 469 -40 562 -40 108 -141 200 -263 240 -58 18 -333 27 -402
13z m300 -641 c104 -16 141 -36 145 -77 2 -18 -4 -57 -12 -86 -39 -134 -225
-213 -394 -167 -117 32 -168 171 -94 255 68 76 187 101 355 75z"/>
</g>
</svg>
